<svg xmlns="http://www.w3.org/2000/svg" width="476.396" height="106.914" viewBox="0 0 476.396 106.914" fill="#25239e">
  <path id="Path_2" data-name="Path 2" d="M84.294,138H64.743V59.592H35.28V39.973h78.408V59.592H84.294Zm119.971-26.455a27.162,27.162,0,0,1-2.187,10.835,27.731,27.731,0,0,1-5.981,8.853,28.428,28.428,0,0,1-8.887,5.947,27.331,27.331,0,0,1-10.9,2.188,27.955,27.955,0,0,1-9.98-1.812,27.563,27.563,0,0,1-8.682-5.3,26.855,26.855,0,0,1-8.579,5.3,27.869,27.869,0,0,1-10.015,1.812,27.087,27.087,0,0,1-10.869-2.187,28.537,28.537,0,0,1-8.853-5.947,27.731,27.731,0,0,1-5.981-8.853,27.161,27.161,0,0,1-2.187-10.835V64.924h18.662v46.621a9.014,9.014,0,0,0,.718,3.589,9.288,9.288,0,0,0,4.922,4.922,9.013,9.013,0,0,0,3.589.718,9.261,9.261,0,0,0,3.623-.718,9.594,9.594,0,0,0,3.008-1.982,9,9,0,0,0,2.734-6.528V64.924h18.594v46.621a8.661,8.661,0,0,0,.752,3.589,9.784,9.784,0,0,0,2.017,2.939,9.291,9.291,0,0,0,2.939,1.982,9.013,9.013,0,0,0,3.589.718,9.319,9.319,0,0,0,6.6-2.7,9.784,9.784,0,0,0,2.017-2.939,8.661,8.661,0,0,0,.752-3.589V64.924h18.594Zm84.287-10.8a39.424,39.424,0,0,1-2.939,15.278,38.219,38.219,0,0,1-8,12.236,37.417,37.417,0,0,1-11.86,8.135,37.135,37.135,0,0,1-29.121,0,37.47,37.47,0,0,1-19.927-20.371,39.423,39.423,0,0,1-2.939-15.278,40.037,40.037,0,0,1,2.939-15.449,37.838,37.838,0,0,1,8.032-12.271,37.354,37.354,0,0,1,11.895-8.1,36.222,36.222,0,0,1,14.526-2.939,38.338,38.338,0,0,1,14.595,2.769,35.265,35.265,0,0,1,11.86,7.861,37.245,37.245,0,0,1,8,12.236A41.4,41.4,0,0,1,288.552,100.744Zm-18.8,0a21.732,21.732,0,0,0-1.47-8.169,19.4,19.4,0,0,0-4-6.289,17.287,17.287,0,0,0-5.913-4.033,19.258,19.258,0,0,0-14.424,0,16.938,16.938,0,0,0-5.879,4.033,19.244,19.244,0,0,0-3.931,6.289,22.191,22.191,0,0,0-1.436,8.169,21.15,21.15,0,0,0,1.436,7.861,19.734,19.734,0,0,0,3.931,6.289,18.387,18.387,0,0,0,5.879,4.2,17.224,17.224,0,0,0,7.212,1.538,18.273,18.273,0,0,0,7.212-1.436,17.949,17.949,0,0,0,5.913-4.033,18.927,18.927,0,0,0,4-6.289A21.8,21.8,0,0,0,269.753,100.744ZM317.673,138h-18.8V35.666h18.8ZM353.9,44.895a11.931,11.931,0,0,1-.991,4.854,12.465,12.465,0,0,1-2.7,3.931,13.071,13.071,0,0,1-4,2.666,12.546,12.546,0,0,1-9.775,0,12.519,12.519,0,0,1-6.631-6.6,12.295,12.295,0,0,1,0-9.673,12.428,12.428,0,0,1,6.631-6.631,12.546,12.546,0,0,1,9.775,0,13.071,13.071,0,0,1,4,2.666,12.362,12.362,0,0,1,2.7,3.965A12,12,0,0,1,353.9,44.895ZM350.69,138h-18.8V64.787h18.8Zm32.881,0H364.909V64.787h4.512l6.152,7.109a32.829,32.829,0,0,1,22.148-8.545,31.607,31.607,0,0,1,12.646,2.563,32.742,32.742,0,0,1,10.391,7.041,33.331,33.331,0,0,1,7.007,10.459,32.021,32.021,0,0,1,2.563,12.749V138H411.667V96.164a13.7,13.7,0,0,0-1.094-5.435,14.089,14.089,0,0,0-7.451-7.485,13.459,13.459,0,0,0-5.4-1.094,14.122,14.122,0,0,0-5.537,1.094,13.911,13.911,0,0,0-7.52,7.485,13.7,13.7,0,0,0-1.094,5.435Zm78.818,0h-18.8V35.666h18.8V100.2l27.822-35.273h21.465L487.409,95.412,511.677,138H490.212l-14.834-26.592L462.39,128.635Z" transform="translate(-35.28 -32.453)" />
</svg>
