<svg xmlns="http://www.w3.org/2000/svg" width="1395" height="1408" viewBox="0 0 1395 1408">
  <g id="Group_15" data-name="Group 15" transform="translate(-8244 -3473)">
    <g id="Group_14" data-name="Group 14" transform="translate(2246)">
      <g id="Group_11" data-name="Group 11" transform="translate(1937 -689)">
        <g id="Group_9" data-name="Group 9">
          <g id="Group_8" data-name="Group 8">
            <g id="Group_7" data-name="Group 7">
              <g id="Group_6" data-name="Group 6" transform="translate(225 2433)">
                <rect id="Rectangle_1" data-name="Rectangle 1" width="1395" height="1408" transform="translate(3836 1729)" fill="#fff"/>
              </g>
            </g>
          </g>
        </g>
      </g>
    </g>
    <path id="user-solid" d="M224,256A128,128,0,1,0,96,128,128,128,0,0,0,224,256Zm50.7,48H173.3A173.32,173.32,0,0,0,0,477.3a34.671,34.671,0,0,0,34.66,34.67h378.7A34.6,34.6,0,0,0,448,477.3,173.314,173.314,0,0,0,274.7,304Z" transform="translate(8717.5 3921.015)" fill="#eee"/>
  </g>
</svg>
